<svg width="109" height="109" viewBox="0 0 109 109" fill="none" xmlns="http://www.w3.org/2000/svg">
<path d="M54.5 46.4649L14.0108 31.8982M54.5 46.4649L95.0017 31.9464M54.5 46.4649V94.8259M23.3214 84.371L49.6631 93.6682C51.4557 94.3009 52.3518 94.617 53.271 94.7428C54.0867 94.8541 54.9133 94.8541 55.729 94.7428C56.6482 94.617 57.5443 94.3009 59.3369 93.6682L85.6785 84.371C89.1697 83.1388 90.9151 82.523 92.204 81.418C93.3417 80.4425 94.221 79.2003 94.7623 77.8024C95.375 76.2196 95.375 74.3684 95.375 70.6661V38.3343C95.375 34.6321 95.375 32.7811 94.7623 31.1983C94.221 29.8004 93.3417 28.5582 92.204 27.5825C90.9151 26.4777 89.1697 25.8617 85.6785 24.6295L59.3369 15.3324C57.5443 14.6998 56.6482 14.3835 55.729 14.2579C54.9133 14.1466 54.0867 14.1466 53.271 14.2579C52.3518 14.3835 51.4557 14.6998 49.6631 15.3324L23.3214 24.6295C19.8302 25.8617 18.0847 26.4777 16.7962 27.5825C15.6581 28.5582 14.7792 29.8004 14.2379 31.1983C13.625 32.7811 13.625 34.6321 13.625 38.3343V70.6661C13.625 74.3684 13.625 76.2196 14.2379 77.8024C14.7792 79.2003 15.6581 80.4425 16.7962 81.418C18.0847 82.523 19.8302 83.1388 23.3214 84.371Z" stroke="#424242" stroke-width="7" stroke-linecap="round" stroke-linejoin="round"/>
</svg>
